Coordinates
version=1
nRows=32
nColumns=22
inDegrees=yes

Units are S.I. units (second, meters, Newtons, ...)
If the header above contains a line with 'inDegrees', this indicates whether rotational values are in degrees (yes) or radians (no).

endheader
time	pelvis_tilt	pelvis_list	pelvis_rotation	pelvis_tx	pelvis_ty	pelvis_tz	hip_flexion_r	hip_adduction_r	hip_rotation_r	knee_angle_r	ankle_angle_r	subtalar_angle_r	hip_flexion_l	hip_adduction_l	hip_rotation_l	knee_angle_l	ankle_angle_l	subtalar_angle_l	lumbar_extension	lumbar_bending	lumbar_rotation
      3.16000000	      6.51057526	      0.96173152	    -15.67148408	      1.60448699	      0.89932046	      1.07471352	      4.98166345	     -3.59301917	    -15.26339589	    -24.58667968	     16.45655079	    -11.03333615	      9.34829809	      0.33051505	      3.47930234	    -35.82806215	     10.37003569	      1.59595109	    -14.79415733	     -5.88224170	      1.03719770
      3.17000000	      6.27853841	      0.74248077	    -15.56466956	      1.60716694	      0.89910415	      1.07666422	      4.64607008	     -3.17367203	    -15.57358980	    -24.09099034	     16.55574404	    -10.92330871	      9.08488601	     -0.01504675	      3.26120768	    -35.41737426	     10.72634946	      0.91778648	    -14.66719749	     -5.66261715	      1.09444429
      3.18000000	      6.06291212	      0.51119506	    -15.45874784	      1.60982280	      0.89880458	      1.07851350	      4.28385982	     -2.74580611	    -15.89594194	    -23.57424255	     16.67797468	    -10.82872678	      8.78367496	     -0.37618368	      3.02235819	    -35.00206295	     11.12892652	      0.30726408	    -14.54490465	     -5.43169290	      1.15186523
      3.19000000	      5.84835308	      0.25945796	    -15.35586342	      1.61244938	      0.89841004	      1.08024936	      3.91102129	     -2.29333159	    -16.20278349	    -23.03448637	     16.78063531	    -10.77214308	      8.45962903	     -0.76712708	      2.76894459	    -34.57608457	     11.60221054	     -0.08636794	    -14.41534391	     -5.17196572	      1.23039210
      3.20000000	      5.71298775	      0.01628265	    -15.24639690	      1.61511494	      0.89804108	      1.08185738	      3.46347532	     -1.89072394	    -16.57558726	    -22.51445817	     16.96682479	    -10.67916039	      8.02319463	     -1.13232174	      2.49980953	    -34.10568319	     12.07148915	     -0.72891106	    -14.34959666	     -4.93783456	      1.32165473
      3.21000000	      5.54982748	     -0.22895959	    -15.14576165	      1.61771652	      0.89754757	      1.08337058	      3.05376327	     -1.46569384	    -16.84999725	    -21.98611678	     17.12914402	    -10.62116910	      7.61069390	     -1.52269583	      2.20962643	    -33.62529973	     12.65240485	     -1.04136168	    -14.24219472	     -4.68638148	      1.39371851
      3.22000000	      5.47651824	     -0.47145415	    -15.04208057	      1.62033029	      0.89713993	      1.08476104	      2.56369916	     -1.08852118	    -17.18133554	    -21.48435776	     17.34404745	    -10.53249744	      7.07410243	     -1.89279824	      1.90794964	    -33.08616065	     13.18243143	     -1.49695578	    -14.22210673	     -4.45765597	      1.49106291
      3.23000000	      5.37897504	     -0.71022593	    -14.94512936	      1.62286792	      0.89665176	      1.08605341	      2.12243077	     -0.70297046	    -17.42076631	    -21.00025962	     17.51341602	    -10.47256141	      6.56549359	     -2.27622644	      1.60288331	    -32.53468756	     13.80367947	     -1.68533580	    -14.16529639	     -4.21923237	      1.57378547
      3.24000000	      5.34938496	     -0.94809855	    -14.85082574	      1.62537870	      0.89625043	      1.08726403	      1.63294194	     -0.35036854	    -17.67586779	    -20.55349484	     17.71357854	    -10.39380606	      5.97020524	     -2.65045173	      1.28857872	    -31.94182796	     14.36802719	     -1.84966575	    -14.17396073	     -4.00021908	      1.66432534
      3.25000000	      5.31704192	     -1.17445613	    -14.76154498	      1.62780165	      0.89584651	      1.08836297	      1.17922586	     -0.01497959	    -17.88111821	    -20.14004637	     17.88079336	    -10.32275164	      5.38662864	     -3.01763247	      0.98121253	    -31.33360757	     14.94163675	     -1.87940755	    -14.17588956	     -3.78257508	      1.74200685
      3.26000000	      5.31621832	     -1.39490006	    -14.67766847	      1.63014557	      0.89550993	      1.08937253	      0.72241385	      0.29585334	    -18.06992680	    -19.76224581	     18.03640865	    -10.24365079	      4.77366398	     -3.37358414	      0.67916043	    -30.70701432	     15.46499577	     -1.81494028	    -14.20990561	     -3.57615501	      1.81148166
      3.27000000	      5.31970152	     -1.60294788	    -14.60243508	      1.63238940	      0.89520698	      1.09030617	      0.29777454	      0.58473395	    -18.23191900	    -19.42760464	     18.17344581	    -10.16292570	      4.17453495	     -3.71473205	      0.39236229	    -30.08303293	     15.94937472	     -1.65667686	    -14.24347096	     -3.38284324	      1.86355670
      3.28000000	      5.33864010	     -1.79211991	    -14.53500849	      1.63452456	      0.89496507	      1.09114891	     -0.10291468	      0.83665926	    -18.38650973	    -19.13826499	     18.31826655	    -10.05781976	      3.58061338	     -4.02814925	      0.11693678	    -29.46273550	     16.35000679	     -1.38322746	    -14.29246838	     -3.20886043	      1.90024772
      3.29000000	      5.32237462	     -1.96634117	    -14.47732050	      1.63652467	      0.89472189	      1.09190559	     -0.43554215	      1.08011879	    -18.49045147	    -18.87068215	     18.38893096	     -9.99211236	      3.05978750	     -4.32591947	     -0.12937399	    -28.87387826	     16.75171000	     -1.12650758	    -14.30102070	     -3.03652920	      1.91155406
      3.30000000	      5.30730635	     -2.11290098	    -14.43354537	      1.63840313	      0.89452308	      1.09258575	     -0.72907531	      1.28249436	    -18.58640058	    -18.64432091	     18.47284514	     -9.92137268	      2.56906632	     -4.58299964	     -0.36086893	    -28.30597091	     17.08200847	     -0.83240974	    -14.30635651	     -2.89227340	      1.90530976
      3.31000000	      5.27663086	     -2.23245143	    -14.40399852	      1.64015246	      0.89434669	      1.09319190	     -0.97041827	      1.45190118	    -18.66569994	    -18.44872604	     18.54941051	     -9.85027668	      2.13316414	     -4.80299644	     -0.57926692	    -27.77230539	     17.35497732	     -0.53660551	    -14.29000177	     -2.77024196	      1.88096782
      3.32000000	      5.22627330	     -2.32407664	    -14.39234290	      1.64177935	      0.89418130	      1.09374148	     -1.16167653	      1.59152748	    -18.72746634	    -18.27253217	     18.61429270	     -9.78933626	      1.75534344	     -4.98457560	     -0.79028128	    -27.27598813	     17.59017732	     -0.28805984	    -14.24510628	     -2.67270269	      1.84162913
      3.33000000	      5.14446290	     -2.38416842	    -14.39374841	      1.64327781	      0.89397920	      1.09422557	     -1.27457440	      1.69460360	    -18.77791952	    -18.14780332	     18.71318758	     -9.75205136	      1.45912911	     -5.12683941	     -0.98821969	    -26.83550275	     17.84395234	     -0.14954428	    -14.15615690	     -2.60096410	      1.77975048
      3.34000000	      5.10104203	     -2.43037821	    -14.42519154	      1.64470149	      0.89390241	      1.09470170	     -1.44034656	      1.77813791	    -18.80325907	    -17.97181206	     18.73733063	     -9.68992469	      1.12465483	     -5.23269686	     -1.21709768	    -26.38741055	     17.95074630	      0.04792919	    -14.10454780	     -2.55793274	      1.73158782
      3.35000000	      5.01028510	     -2.44397429	    -14.46539965	      1.64601329	      0.89373324	      1.09511037	     -1.50967415	      1.82720913	    -18.83389971	    -17.85421560	     18.82266382	     -9.65803992	      0.89327636	     -5.30297857	     -1.43479233	    -26.00598600	     18.13489999	      0.11541743	    -13.98916102	     -2.53457815	      1.65775000
      3.36000000	      4.94430333	     -2.44474358	    -14.53268101	      1.64727128	      0.89362606	      1.09552030	     -1.60743254	      1.85833421	    -18.83855778	    -17.71293437	     18.88535903	     -9.62238945	      0.64487853	     -5.34528044	     -1.68557707	    -25.63544154	     18.25639596	      0.15796762	    -13.88999128	     -2.53707809	      1.60012090
      3.37000000	      4.87888874	     -2.42783513	    -14.61625065	      1.64848206	      0.89351500	      1.09588739	     -1.69500663	      1.86527284	    -18.84299405	    -17.57381304	     18.95739745	     -9.58995162	      0.41830027	     -5.35721366	     -1.94119965	    -25.29508087	     18.36186957	      0.16498167	    -13.77836135	     -2.55485490	      1.53640652
      3.38000000	      4.82530857	     -2.40197351	    -14.70939809	      1.64964722	      0.89341967	      1.09622362	     -1.78939943	      1.85926402	    -18.83129054	    -17.43208005	     19.03267212	     -9.55700119	      0.19304846	     -5.35175327	     -2.21197948	    -24.96931768	     18.45528635	      0.14039234	    -13.67307779	     -2.58725575	      1.48218404
      3.39000000	      4.78087833	     -2.36864313	    -14.81935624	      1.65079633	      0.89332458	      1.09652545	     -1.88978893	      1.83862741	    -18.81374061	    -17.28834384	     19.11492794	     -9.52595256	     -0.02732946	     -5.32843809	     -2.48748713	    -24.66979319	     18.54696817	      0.09381825	    -13.56454619	     -2.62428534	      1.42957420
      3.40000000	      4.74714999	     -2.33183509	    -14.94136315	      1.65192629	      0.89323388	      1.09677651	     -1.99886201	      1.80715870	    -18.78467797	    -17.14033840	     19.19989882	     -9.49480047	     -0.24732598	     -5.29220873	     -2.76471462	    -24.38895571	     18.63457267	      0.03315852	    -13.46000007	     -2.66106691	      1.38373557
      3.41000000	      4.71980775	     -2.29245326	    -15.07260330	      1.65304950	      0.89313098	      1.09698821	     -2.11204727	      1.76749067	    -18.74839687	    -16.99394766	     19.29045372	     -9.46383254	     -0.45850302	     -5.24697576	     -3.03541675	    -24.13582952	     18.72582545	     -0.02521243	    -13.35085890	     -2.69671391	      1.34003284
      3.42000000	      4.70055590	     -2.25402093	    -15.21952750	      1.65415240	      0.89302283	      1.09716439	     -2.22928145	      1.72157785	    -18.69603306	    -16.84983476	     19.38083088	     -9.42924970	     -0.66868936	     -5.19507180	     -3.29846456	    -23.90151262	     18.81349386	     -0.08080408	    -13.24437334	     -2.72812414	      1.30580018
      3.43000000	      4.67916782	     -2.21380510	    -15.37541148	      1.65522743	      0.89288999	      1.09729222	     -2.33546592	      1.66856854	    -18.63507330	    -16.71477353	     19.47434749	     -9.39225649	     -0.85855170	     -5.13605846	     -3.54418536	    -23.69624573	     18.90347041	     -0.12189343	    -13.13001555	     -2.75243937	      1.27377512
      3.44000000	      4.65629850	     -2.17165690	    -15.55144143	      1.65625956	      0.89273245	      1.09740586	     -2.42754266	      1.60797957	    -18.55593296	    -16.59408714	     19.56788264	     -9.34895697	     -1.03456538	     -5.07044198	     -3.77966289	    -23.51221946	     18.98866777	     -0.15418254	    -13.00972136	     -2.77582873	      1.25362032
      3.45000000	      4.62146150	     -2.12059034	    -15.74098106	      1.65723273	      0.89253180	      1.09748911	     -2.48858540	      1.53450814	    -18.46698289	    -16.49273308	     19.66894365	     -9.30308479	     -1.17465843	     -4.99302708	     -3.99644494	    -23.36076654	     19.07824910	     -0.17289930	    -12.87302832	     -2.80057933	      1.23665920
      3.46000000	      4.57379197	     -2.05718408	    -15.95628633	      1.65812646	      0.89228863	      1.09757196	     -2.51237711	      1.44510640	    -18.35950371	    -16.41589399	     19.77298984	     -9.25028901	     -1.28246308	     -4.90079689	     -4.20794042	    -23.23365626	     19.15958459	     -0.18877771	    -12.72068650	     -2.83591655	      1.23627058
      3.47000000	      4.51097343	     -1.97057454	    -16.18413322	      1.65893679	      0.89199687	      1.09761722	     -2.49766519	      1.32941606	    -18.24673548	    -16.35329759	     19.88488889	     -9.19767513	     -1.34092206	     -4.78188484	     -4.40400105	    -23.14501096	     19.24797216	     -0.19949546	    -12.54894863	     -2.88893527	      1.24268545
